<svg width="16" height="16" viewBox="0 0 16 16" fill="none" xmlns="http://www.w3.org/2000/svg">
<g clip-path="url(#clip0_22_852)">
<path d="M14.5 16H1.5C0.675 16 0 15.325 0 14.5V1.5C0 0.675 0.675 0 1.5 0H14.5C15.325 0 16 0.675 16 1.5V14.5C16 15.325 15.325 16 14.5 16Z" fill="#FCC21B"/>
<path d="M15.56 0.440002L0.440002 15.56C0.712502 15.8313 1.0875 16 1.5 16H14.5C15.325 16 16 15.325 16 14.5V1.5C16 1.0875 15.8313 0.712502 15.56 0.440002Z" fill="#F79329"/>
<path d="M14 12.625C14 13.4537 13.3287 14.125 12.5 14.125H3.48624C2.66124 14.125 1.98624 13.45 1.98624 12.625V3.61249C1.98624 2.78749 2.66124 2.11249 3.48624 2.11249H12.5C13.3287 2.11249 14 2.78374 14 3.61249V12.625Z" fill="#FCC21B"/>
<path d="M11.1638 8.87874L8.65626 8.03999C9.62626 7.74624 11.095 7.35249 11.3063 7.29249C11.6413 7.19749 11.8238 7.06749 11.745 6.72874C11.6825 6.45749 11.35 5.69499 11.0488 5.30374C10.7975 4.97874 10.3813 5.37999 10.3813 5.37999L8.34376 6.98499C8.50376 6.28874 8.89126 4.65249 8.96876 4.40499C9.07001 4.08499 8.91876 3.79749 8.56376 3.72999C8.29001 3.67749 7.56376 3.63124 7.08001 3.72999C6.58251 3.83124 6.78876 4.45499 6.78876 4.45499L7.38626 6.98374L5.47126 5.43249C5.47126 5.43249 4.94376 4.90749 4.62751 5.30499C4.32001 5.69124 4.03001 6.35999 3.95251 6.62624C3.85126 6.97249 4.05376 7.19999 4.36876 7.29374C4.65376 7.37874 6.60876 7.92624 7.06251 8.04124L4.55376 8.82499C4.55376 8.82499 3.85626 8.99874 4.02126 9.47874C4.18126 9.94624 4.59001 10.5487 4.77251 10.7587C5.01001 11.03 5.33376 11.0162 5.55876 10.7662C5.71751 10.59 6.69626 9.60249 7.26001 9.06874C7.08626 9.82249 6.77626 11.2125 6.70501 11.44C6.60376 11.76 6.75501 12.0475 7.11001 12.115C7.38376 12.1675 8.11001 12.2137 8.59376 12.115C9.09126 12.0137 8.89001 11.4125 8.89001 11.4125L8.34251 9.06998C8.88626 9.58373 10.0188 10.625 10.1863 10.8112C10.4113 11.0612 10.735 11.075 10.9725 10.8037C11.1563 10.595 11.5638 9.99124 11.7238 9.52374C11.89 9.04124 11.1638 8.87874 11.1638 8.87874Z" fill="white"/>
</g>
<defs>
<clipPath id="clip0_22_852">
<rect width="16" height="16" fill="white"/>
</clipPath>
</defs>
</svg>
