<svg width="32" height="32" viewBox="0 0 32 32" fill="none" xmlns="http://www.w3.org/2000/svg">
<g clip-path="url(#clip0_22_857)">
<path d="M29 32H3C1.35 32 0 30.65 0 29V3C0 1.35 1.35 0 3 0H29C30.65 0 32 1.35 32 3V29C32 30.65 30.65 32 29 32Z" fill="#FCC21B"/>
<path d="M31.12 0.880005L0.880005 31.12C1.425 31.6625 2.175 32 3 32H29C30.65 32 32 30.65 32 29V3C32 2.175 31.6625 1.425 31.12 0.880005Z" fill="#F79329"/>
<path d="M28 25.25C28 26.9075 26.6575 28.25 25 28.25H6.9725C5.3225 28.25 3.9725 26.9 3.9725 25.25V7.22498C3.9725 5.57498 5.3225 4.22498 6.9725 4.22498H25C26.6575 4.22498 28 5.56748 28 7.22498V25.25Z" fill="#FCC21B"/>
<path d="M22.3275 17.7575L17.3125 16.08C19.2525 15.4925 22.19 14.705 22.6125 14.585C23.2825 14.395 23.6475 14.135 23.49 13.4575C23.365 12.915 22.7 11.39 22.0975 10.6075C21.595 9.95747 20.7625 10.76 20.7625 10.76L16.6875 13.97C17.0075 12.5775 17.7825 9.30497 17.9375 8.80997C18.14 8.16997 17.8375 7.59497 17.1275 7.45997C16.58 7.35497 15.1275 7.26247 14.16 7.45997C13.165 7.66247 13.5775 8.90997 13.5775 8.90997L14.7725 13.9675L10.9425 10.865C10.9425 10.865 9.8875 9.81497 9.255 10.61C8.64 11.3825 8.06 12.72 7.905 13.2525C7.7025 13.945 8.1075 14.4 8.7375 14.5875C9.3075 14.7575 13.2175 15.8525 14.125 16.0825L9.1075 17.65C9.1075 17.65 7.7125 17.9975 8.0425 18.9575C8.3625 19.8925 9.18 21.0975 9.545 21.5175C10.02 22.06 10.6675 22.0325 11.1175 21.5325C11.435 21.18 13.3925 19.205 14.52 18.1375C14.1725 19.645 13.5525 22.425 13.41 22.88C13.2075 23.52 13.51 24.095 14.22 24.23C14.7675 24.335 16.22 24.4275 17.1875 24.23C18.1825 24.0275 17.78 22.825 17.78 22.825L16.685 18.14C17.7725 19.1675 20.0375 21.25 20.3725 21.6225C20.8225 22.1225 21.47 22.15 21.945 21.6075C22.3125 21.19 23.1275 19.9825 23.4475 19.0475C23.78 18.0825 22.3275 17.7575 22.3275 17.7575Z" fill="white"/>
</g>
<defs>
<clipPath id="clip0_22_857">
<rect width="32" height="32" fill="white"/>
</clipPath>
</defs>
</svg>
